<?xml version="1.0" encoding="UTF-8" standalone="no"?>
<!-- Created with Inkscape (http://www.inkscape.org/) -->

<svg
   xmlns:dc="http://purl.org/dc/elements/1.1/"
   xmlns:cc="http://creativecommons.org/ns#"
   xmlns:rdf="http://www.w3.org/1999/02/22-rdf-syntax-ns#"
   xmlns:svg="http://www.w3.org/2000/svg"
   xmlns="http://www.w3.org/2000/svg"
   xmlns:sodipodi="http://sodipodi.sourceforge.net/DTD/sodipodi-0.dtd"
   xmlns:inkscape="http://www.inkscape.org/namespaces/inkscape"
   width="125.18756mm"
   height="171.2661mm"
   viewBox="0 0 443.57797 606.84838"
   id="svg2"
   version="1.1"
   inkscape:version="0.91 r13725"
   sodipodi:docname="obsplus_panda.svg">
  <defs
     id="defs4">
    <inkscape:path-effect
       effect="spiro"
       id="path-effect4687"
       is_visible="true" />
    <inkscape:path-effect
       effect="spiro"
       id="path-effect4683"
       is_visible="true" />
    <inkscape:path-effect
       effect="spiro"
       id="path-effect4645"
       is_visible="true" />
    <inkscape:path-effect
       effect="spiro"
       id="path-effect4641"
       is_visible="true" />
    <inkscape:path-effect
       effect="spiro"
       id="path-effect4537"
       is_visible="true" />
    <inkscape:path-effect
       effect="spiro"
       id="path-effect4479"
       is_visible="true" />
    <inkscape:path-effect
       effect="spiro"
       id="path-effect4471"
       is_visible="true" />
    <inkscape:path-effect
       effect="spiro"
       id="path-effect4467"
       is_visible="true" />
    <inkscape:path-effect
       effect="spiro"
       id="path-effect4463"
       is_visible="true" />
    <inkscape:path-effect
       effect="spiro"
       id="path-effect4459"
       is_visible="true" />
    <inkscape:path-effect
       effect="spiro"
       id="path-effect4439"
       is_visible="true" />
    <inkscape:path-effect
       effect="spiro"
       id="path-effect4433"
       is_visible="true" />
    <inkscape:path-effect
       effect="spiro"
       id="path-effect4429"
       is_visible="true" />
    <inkscape:path-effect
       effect="spiro"
       id="path-effect4425"
       is_visible="true" />
    <inkscape:path-effect
       effect="spiro"
       id="path-effect4421"
       is_visible="true" />
    <inkscape:path-effect
       effect="spiro"
       id="path-effect4322"
       is_visible="true" />
    <clipPath
       clipPathUnits="userSpaceOnUse"
       id="clipPath4184">
      <circle
         style="opacity:1;fill:#ffffff;fill-opacity:1;stroke:#000000;stroke-width:3;stroke-linecap:butt;stroke-linejoin:miter;stroke-miterlimit:4;stroke-dasharray:none;stroke-opacity:1"
         id="circle4186"
         cx="438.5"
         cy="582.86218"
         r="166.5" />
    </clipPath>
    <clipPath
       clipPathUnits="userSpaceOnUse"
       id="clipPath4188">
      <circle
         style="opacity:1;fill:#ffffff;fill-opacity:1;stroke:#000000;stroke-width:3;stroke-linecap:butt;stroke-linejoin:miter;stroke-miterlimit:4;stroke-dasharray:none;stroke-opacity:1"
         id="circle4190"
         cx="438.5"
         cy="582.86218"
         r="166.5" />
    </clipPath>
    <inkscape:path-effect
       effect="spiro"
       id="path-effect4479-0"
       is_visible="true" />
    <inkscape:path-effect
       effect="spiro"
       id="path-effect4479-8"
       is_visible="true" />
    <inkscape:path-effect
       effect="spiro"
       id="path-effect4479-09"
       is_visible="true" />
    <inkscape:path-effect
       effect="spiro"
       id="path-effect4645-1"
       is_visible="true" />
    <inkscape:path-effect
       effect="spiro"
       id="path-effect4479-8-2"
       is_visible="true" />
    <inkscape:path-effect
       effect="spiro"
       id="path-effect4641-4"
       is_visible="true" />
    <clipPath
       clipPathUnits="userSpaceOnUse"
       id="clipPath4188-9">
      <circle
         style="opacity:1;fill:#ffffff;fill-opacity:1;stroke:#000000;stroke-width:3;stroke-linecap:butt;stroke-linejoin:miter;stroke-miterlimit:4;stroke-dasharray:none;stroke-opacity:1"
         id="circle4190-0"
         cx="438.5"
         cy="582.86218"
         r="166.5" />
    </clipPath>
    <clipPath
       clipPathUnits="userSpaceOnUse"
       id="clipPath4184-1">
      <circle
         style="opacity:1;fill:#ffffff;fill-opacity:1;stroke:#000000;stroke-width:3;stroke-linecap:butt;stroke-linejoin:miter;stroke-miterlimit:4;stroke-dasharray:none;stroke-opacity:1"
         id="circle4186-4"
         cx="438.5"
         cy="582.86218"
         r="166.5" />
    </clipPath>
    <inkscape:path-effect
       effect="spiro"
       id="path-effect4322-4"
       is_visible="true" />
    <inkscape:path-effect
       effect="spiro"
       id="path-effect4433-3"
       is_visible="true" />
    <inkscape:path-effect
       effect="spiro"
       id="path-effect4439-2"
       is_visible="true" />
    <inkscape:path-effect
       effect="spiro"
       id="path-effect4463-5"
       is_visible="true" />
    <inkscape:path-effect
       effect="spiro"
       id="path-effect4467-1"
       is_visible="true" />
    <inkscape:path-effect
       effect="spiro"
       id="path-effect4421-3"
       is_visible="true" />
    <inkscape:path-effect
       effect="spiro"
       id="path-effect4687-2"
       is_visible="true" />
    <inkscape:path-effect
       effect="spiro"
       id="path-effect4471-6"
       is_visible="true" />
    <inkscape:path-effect
       effect="spiro"
       id="path-effect4537-0"
       is_visible="true" />
  </defs>
  <sodipodi:namedview
     id="base"
     pagecolor="#ffffff"
     bordercolor="#666666"
     borderopacity="1.0"
     inkscape:pageopacity="0.0"
     inkscape:pageshadow="2"
     inkscape:zoom="0.5"
     inkscape:cx="163.61946"
     inkscape:cy="384.46273"
     inkscape:document-units="px"
     inkscape:current-layer="layer1"
     showgrid="false"
     inkscape:window-width="1680"
     inkscape:window-height="1026"
     inkscape:window-x="1680"
     inkscape:window-y="24"
     inkscape:window-maximized="1"
     fit-margin-top="0"
     fit-margin-left="0"
     fit-margin-right="0"
     fit-margin-bottom="0" />
  <metadata
     id="metadata7">
    <rdf:RDF>
      <cc:Work
         rdf:about="">
        <dc:format>image/svg+xml</dc:format>
        <dc:type
           rdf:resource="http://purl.org/dc/dcmitype/StillImage" />
        <dc:title></dc:title>
      </cc:Work>
    </rdf:RDF>
  </metadata>
  <g
     inkscape:label="Layer 1"
     inkscape:groupmode="layer"
     id="layer1"
     transform="translate(-151.55575,-252.82516)">
    <g
       id="g4717"
       transform="translate(-116,-36)">
      <g
         id="g4665">
        <path
           style="fill:#090909;fill-opacity:1;fill-rule:evenodd;stroke:#000000;stroke-width:3;stroke-linecap:butt;stroke-linejoin:miter;stroke-miterlimit:4;stroke-dasharray:none;stroke-opacity:1"
           d="m 342.45283,718.17353 c 17.97631,45.84906 48.44424,86.72992 87.24324,117.06013 13.96214,10.91457 28.9483,20.47032 42.85714,31.45274 7.91564,6.25019 15.49619,12.97216 23.98202,18.42312 5.41459,3.47811 11.23451,6.44247 17.48493,7.97456 6.25042,1.53209 12.977,1.56662 19.00815,-0.67845 5.47351,-2.03749 10.13031,-5.83605 14.14151,-10.08116 11.92419,-12.61954 18.71875,-29.31337 22.6415,-46.22642 1.36121,-5.86891 2.41163,-11.84249 2.48152,-17.86678 0.0699,-6.0243 -0.86953,-12.12405 -3.34587,-17.6163 -2.47633,-5.49224 -6.5618,-10.35042 -11.86863,-13.20253 -5.30684,-2.85211 -11.86029,-3.54789 -17.45569,-1.31439 -4.79615,1.91447 -8.53477,5.71909 -12.32721,9.22418 -1.89622,1.75254 -3.8496,3.46011 -6.02021,4.85851 -2.17061,1.3984 -4.57549,2.4853 -7.12429,2.89844 -3.24458,0.52592 -6.5779,-0.0584 -9.71857,-1.02795 -10.36821,-3.20089 -18.95885,-10.40052 -27.07388,-17.60412 -9.85904,-8.75173 -19.49398,-17.78545 -28.30189,-27.59434 -7.95025,-8.85377 -15.212,-18.32562 -21.69811,-28.30189"
           id="path4477"
           inkscape:path-effect="#path-effect4479"
           inkscape:original-d="m 342.45283,718.17353 c 33.01887,57.54717 87.24324,117.06013 87.24324,117.06013 0,0 26.8194,26.73575 42.85714,31.45274 3.56528,1.04861 15.69635,16.51235 23.98202,18.42312 8.6947,2.00509 30.59857,7.42676 36.49308,7.29611 13.75626,-0.3049 13.1143,-4.94517 14.14151,-10.08116 1.8868,-9.43397 23.5849,-16.03774 22.6415,-46.22642 -0.94339,-30.18868 -9.43396,-47.16981 -30.18867,-50 -20.75472,-2.83019 -22.64153,9.43395 -25.47171,16.98113 -0.70914,1.89105 0,0 -9.71857,-1.02795 -8.07014,-0.85359 -19.77907,-12.19185 -27.07388,-17.60412 -14.62264,-10.84905 -25,-19.10378 -28.30189,-27.59434 -6.60378,-16.98114 -21.69811,-28.30189 -21.69811,-28.30189"
           inkscape:connector-curvature="0"
           sodipodi:nodetypes="ccssssssssssc" />
        <ellipse
           style="opacity:1;fill:#48443a;fill-opacity:1;stroke:#000000;stroke-width:1.23251176;stroke-linecap:round;stroke-linejoin:round;stroke-miterlimit:4;stroke-dasharray:none;stroke-opacity:1"
           id="path4539"
           cx="856.49188"
           cy="564.51721"
           rx="19.630913"
           ry="40.986111"
           transform="matrix(0.91551597,0.40228162,-0.43891075,0.89853066,0,0)" />
        <ellipse
           style="opacity:1;fill:#48443a;fill-opacity:1;stroke:#000000;stroke-width:0.37095883;stroke-linecap:round;stroke-linejoin:round;stroke-miterlimit:4;stroke-dasharray:none;stroke-opacity:1"
           id="path4539-9"
           cx="830.46326"
           cy="622.35126"
           rx="7.2144623"
           ry="10.102818"
           transform="matrix(0.96115775,0.27599959,-0.39399488,0.91911263,0,0)" />
        <ellipse
           style="opacity:1;fill:#48443a;fill-opacity:1;stroke:#000000;stroke-width:0.30205333;stroke-linecap:round;stroke-linejoin:round;stroke-miterlimit:4;stroke-dasharray:none;stroke-opacity:1"
           id="path4539-9-2"
           cx="816.71466"
           cy="631.81317"
           rx="5.8743782"
           ry="8.226222"
           transform="matrix(0.96115775,0.27599959,-0.39399488,0.91911263,0,0)" />
        <ellipse
           style="opacity:1;fill:#48443a;fill-opacity:1;stroke:#000000;stroke-width:0.24409693;stroke-linecap:round;stroke-linejoin:round;stroke-miterlimit:4;stroke-dasharray:none;stroke-opacity:1"
           id="path4539-9-2-3"
           cx="889.71295"
           cy="628.1297"
           rx="4.6133652"
           ry="6.8407216"
           transform="matrix(0.95925232,0.28255087,-0.45866285,0.88861037,0,0)" />
        <path
           style="fill:none;fill-rule:evenodd;stroke:#48443a;stroke-width:3;stroke-linecap:round;stroke-linejoin:miter;stroke-miterlimit:4;stroke-dasharray:none;stroke-opacity:1"
           d="m 517.96116,802.3622 c -1.51405,2.19359 -3.11028,4.33046 -4.7842,6.40462 -1.51229,1.87389 -3.08761,3.69617 -4.60218,5.56821 -1.87553,2.3182 -3.65741,4.71217 -5.33981,7.17411"
           id="path4643"
           inkscape:path-effect="#path-effect4645"
           inkscape:original-d="m 517.96116,802.3622 -4.7842,6.40462 -4.60218,5.56821 -5.33981,7.17411"
           inkscape:connector-curvature="0"
           sodipodi:nodetypes="cccc" />
      </g>
      <g
         id="g4673">
        <path
           style="fill:#090909;fill-opacity:1;fill-rule:evenodd;stroke:#000000;stroke-width:3;stroke-linecap:butt;stroke-linejoin:miter;stroke-miterlimit:4;stroke-dasharray:none;stroke-opacity:1"
           d="m 454.60235,709.72743 c 32.57349,36.93578 75.18605,64.9306 122.01874,80.16161 16.85313,5.48101 34.20379,9.33489 51.03003,14.89789 9.57596,3.16595 18.99839,6.88984 28.8368,9.10974 6.27763,1.41646 12.76044,2.21151 19.15792,1.51343 6.39748,-0.69807 12.7302,-2.96626 17.62977,-7.1387 4.44656,-3.78667 7.52333,-8.94886 9.84072,-14.30987 6.88895,-15.9368 7.56411,-33.94774 5.46568,-51.18247 -0.72817,-5.98053 -1.78417,-11.95313 -3.77894,-17.63801 -1.99476,-5.68489 -4.96376,-11.09549 -9.16921,-15.40955 -4.20545,-4.31407 -9.70613,-7.48195 -15.6684,-8.34702 -5.96227,-0.86506 -12.35848,0.72253 -16.85253,4.73508 -3.85212,3.43939 -6.06402,8.29325 -8.42893,12.88405 -1.18246,2.2954 -2.43401,4.56808 -3.99543,6.62454 -1.56142,2.05646 -3.44954,3.90032 -5.70332,5.16029 -2.86904,1.60392 -6.20117,2.19494 -9.48406,2.35799 -10.8377,0.53828 -21.37267,-3.28899 -31.46208,-7.28265 -12.25774,-4.85195 -24.40133,-10.04552 -36.03289,-16.25038 -10.49896,-5.60067 -20.56234,-12.01764 -30.06939,-19.17388"
           id="path4477-7"
           inkscape:path-effect="#path-effect4479-8"
           inkscape:original-d="m 454.60235,709.72743 c 50.70988,42.78354 122.01874,80.16161 122.01874,80.16161 0,0 34.34617,15.9506 51.03003,14.89789 3.70891,-0.23402 20.3973,10.14807 28.8368,9.10974 8.85613,-1.0896 31.29335,-3.48645 36.78769,-5.62527 12.82238,-4.99143 10.63207,-9.1323 9.84072,-14.30987 -1.4536,-9.51036 16.67733,-23.13706 5.46568,-51.18247 -11.21163,-28.04543 -24.99805,-41.09853 -45.46908,-36.6595 -20.47103,4.43902 -18.04947,16.60886 -18.12768,24.66888 -0.0196,2.01954 0,0 -9.48406,2.35799 -7.87539,1.95803 -22.7561,-4.69176 -31.46208,-7.28265 -17.45138,-5.19354 -30.0262,-9.40118 -36.03289,-16.25038 -12.01342,-13.69843 -30.06939,-19.17388 -30.06939,-19.17388"
           inkscape:connector-curvature="0"
           sodipodi:nodetypes="ccssssssssssc" />
        <ellipse
           style="opacity:1;fill:#48443a;fill-opacity:1;stroke:#000000;stroke-width:1.32611454;stroke-linecap:round;stroke-linejoin:round;stroke-miterlimit:4;stroke-dasharray:none;stroke-opacity:1"
           id="path4539-7"
           cx="998.57513"
           cy="77.447044"
           rx="25.011787"
           ry="37.240234"
           transform="matrix(0.71192778,0.70225268,-0.39039329,0.92064819,0,0)" />
        <ellipse
           style="opacity:1;fill:#48443a;fill-opacity:1;stroke:#000000;stroke-width:0.39281541;stroke-linecap:round;stroke-linejoin:round;stroke-miterlimit:4;stroke-dasharray:none;stroke-opacity:1"
           id="path4539-9-5"
           cx="964.52783"
           cy="91.407433"
           rx="8.4030008"
           ry="9.7260752"
           transform="matrix(0.75055592,0.66080694,-0.40226199,0.9155246,0,0)" />
        <ellipse
           style="opacity:1;fill:#48443a;fill-opacity:1;stroke:#000000;stroke-width:0.31836054;stroke-linecap:round;stroke-linejoin:round;stroke-miterlimit:4;stroke-dasharray:none;stroke-opacity:1"
           id="path4539-9-2-9"
           cx="969.81946"
           cy="65.083496"
           rx="6.5504694"
           ry="8.1952305"
           transform="matrix(0.72358899,0.6902311,-0.46612851,0.88471702,0,0)" />
        <ellipse
           style="opacity:1;fill:#48443a;fill-opacity:1;stroke:#000000;stroke-width:0.25364321;stroke-linecap:round;stroke-linejoin:round;stroke-miterlimit:4;stroke-dasharray:none;stroke-opacity:1"
           id="path4539-9-2-3-2"
           cx="1003.6316"
           cy="41.337578"
           rx="5.1573567"
           ry="6.6071534"
           transform="matrix(0.71950771,0.69448446,-0.53539534,0.84460158,0,0)" />
        <path
           style="fill:none;fill-rule:evenodd;stroke:#48443a;stroke-width:3;stroke-linecap:round;stroke-linejoin:miter;stroke-miterlimit:4;stroke-dasharray:none;stroke-opacity:1"
           d="m 649.17825,727.70328 -6.53595,14.19189"
           id="path4639"
           inkscape:path-effect="#path-effect4641"
           inkscape:original-d="m 649.17825,727.70328 -6.53595,14.19189"
           inkscape:connector-curvature="0"
           sodipodi:nodetypes="cc" />
      </g>
      <g
         id="g4196">
        <circle
           style="opacity:1;fill:#ffffff;fill-opacity:1;stroke:#000000;stroke-width:3;stroke-linecap:butt;stroke-linejoin:miter;stroke-miterlimit:4;stroke-dasharray:none;stroke-opacity:1"
           id="path3336"
           cx="438.5"
           cy="582.86218"
           r="166.5" />
        <circle
           style="opacity:1;fill:none;fill-opacity:1;stroke:#000000;stroke-width:3;stroke-linecap:butt;stroke-linejoin:miter;stroke-miterlimit:4;stroke-dasharray:none;stroke-opacity:1"
           id="path3336-3"
           cx="604"
           cy="339.36218"
           r="346.875"
           clip-path="url(#clipPath4188)" />
        <circle
           style="opacity:1;fill:none;fill-opacity:1;stroke:#000000;stroke-width:3;stroke-linecap:butt;stroke-linejoin:miter;stroke-miterlimit:4;stroke-dasharray:none;stroke-opacity:1"
           id="path3336-6"
           cx="226"
           cy="411.36218"
           r="346.875"
           clip-path="url(#clipPath4184)" />
        <path
           style="opacity:1;fill:#090909;fill-opacity:1;stroke:#000000;stroke-width:3;stroke-linecap:butt;stroke-linejoin:miter;stroke-miterlimit:4;stroke-dasharray:none;stroke-opacity:1"
           d="m 564.49848,682.10342 c -1.375,-0.21253 -8.49771,-1.30956 -15.82825,-2.43785 -22.11579,-3.40398 -39.43633,-7.9556 -63.37098,-16.6531 l -12.69923,-4.61471 6.19923,-6.57635 c 42.16141,-44.72621 72.94887,-101.26649 86.27287,-158.4376 l 2.76831,-11.87839 2.77513,3.37839 c 5.13693,6.25362 14.88053,23.37615 19.48715,34.24503 8.46676,19.97647 12.50343,40.4555 12.52469,63.54084 0.0262,28.46821 -5.95677,52.91332 -18.86855,77.09252 -6.00366,11.24273 -14.01823,23.03384 -15.54084,22.86382 -0.67074,-0.0749 -2.34453,-0.31007 -3.71953,-0.5226 z"
           id="path4192"
           inkscape:connector-curvature="0" />
        <path
           style="opacity:1;fill:#090909;fill-opacity:1;stroke:#000000;stroke-width:3;stroke-linecap:butt;stroke-linejoin:miter;stroke-miterlimit:4;stroke-dasharray:none;stroke-opacity:1"
           d="M 352.78659,723.10947 C 341.18133,715.83453 334.69542,710.82643 325.14006,701.7622 295.3665,673.51896 277.35764,635.41469 274.6903,595.01747 c -1.97245,-29.87305 3.00287,-56.58103 15.50927,-83.25527 5.20902,-11.11004 3.68343,-11.83481 14.73437,7 33.00422,56.25123 87.67909,106.28296 147.12148,134.62751 6.56868,3.13222 12.16806,5.89488 12.44306,6.13925 0.7176,0.63766 -10.76883,11.08777 -23,20.92492 -21.97043,17.67012 -50.23842,35.03628 -74.48583,45.75964 l -5.43796,2.40492 -8.7881,-5.50897 z"
           id="path4194"
           inkscape:connector-curvature="0" />
      </g>
      <g
         transform="translate(63,185)"
         id="g4378">
        <circle
           style="opacity:1;fill:#090909;fill-opacity:1;stroke:#000000;stroke-width:3;stroke-linecap:butt;stroke-linejoin:miter;stroke-miterlimit:4;stroke-dasharray:none;stroke-opacity:1"
           id="path4203-5"
           cx="423.5"
           cy="129.8622"
           r="24.537037" />
        <circle
           style="opacity:1;fill:#48443b;fill-opacity:1;stroke:#000000;stroke-width:2.01635838;stroke-linecap:butt;stroke-linejoin:miter;stroke-miterlimit:4;stroke-dasharray:none;stroke-opacity:1"
           id="path4203-5-9"
           cx="424.46295"
           cy="127.89926"
           r="16.491821" />
        <circle
           style="opacity:1;fill:#ffffff;fill-opacity:1;stroke:#000000;stroke-width:3;stroke-linecap:butt;stroke-linejoin:miter;stroke-miterlimit:4;stroke-dasharray:none;stroke-opacity:1"
           id="path4203"
           cx="368"
           cy="196.3622"
           r="85.879631" />
        <path
           style="opacity:1;fill:#090909;fill-opacity:1;stroke:#000000;stroke-width:3;stroke-linecap:butt;stroke-linejoin:miter;stroke-miterlimit:4;stroke-dasharray:none;stroke-opacity:1"
           d="m 318.53704,136.3622 c 0,6.77571 -6.7464,9.90997 -11.18674,14.3503 -4.44033,4.44033 -6.57459,10.18673 -13.3503,10.18673 -13.55143,0 -24.53704,-10.9856 -24.53704,-24.53703 0,-13.55143 10.98561,-24.53704 24.53704,-24.53704 13.55143,0 24.53704,10.98561 24.53704,24.53704 z"
           id="path4203-5-2"
           inkscape:connector-curvature="0"
           sodipodi:nodetypes="ssssss" />
        <circle
           style="opacity:1;fill:#48443b;fill-opacity:1;stroke:#000000;stroke-width:2.01635838;stroke-linecap:butt;stroke-linejoin:miter;stroke-miterlimit:4;stroke-dasharray:none;stroke-opacity:1"
           id="path4203-5-9-1"
           cx="291.78461"
           cy="133.36221"
           r="16.491821" />
        <path
           style="opacity:1;fill:#0a0a08;fill-opacity:1;stroke:#000000;stroke-width:2.46302366;stroke-linecap:butt;stroke-linejoin:miter;stroke-miterlimit:4;stroke-dasharray:none;stroke-opacity:1"
           d="m 364.37672,179.66712 c -2.05188,3.95855 -7.43957,13.88032 -7.43957,13.88032 -2.95288,4.81538 -7.72518,10.74994 -12.67513,10.74994 -4.94995,0 -11.89431,-1.25994 -15.13814,-5.82389 -2.52926,-3.55855 -6.32766,-13.08362 -3.60819,-16.61702 0,0 1.45941,-2.46592 4.96635,-3.3814 3.50693,-0.91548 10.42971,-1.92253 12.05162,-3.3835 3.24385,-2.92194 4.2451,-9.19213 8.84376,-11.0236 5.49729,-2.18935 10.52595,-0.10845 13.7698,2.81352 3.24386,2.92194 1.96617,7.50589 -0.7705,12.78563 z"
           id="path4278"
           inkscape:connector-curvature="0"
           sodipodi:nodetypes="scssssssss" />
        <path
           style="opacity:1;fill:#0a0a08;fill-opacity:1;stroke:#000000;stroke-width:2.46302366;stroke-linecap:butt;stroke-linejoin:miter;stroke-miterlimit:4;stroke-dasharray:none;stroke-opacity:1"
           d="m 391.08411,179.63168 c 2.05188,3.95855 7.43957,13.88032 7.43957,13.88032 1.47644,2.40769 4.80774,4.09517 6.98866,6.18074 2.18093,2.08556 2.21149,5.9692 4.68647,5.9692 4.94995,0 12.89431,-2.65994 16.13814,-7.22389 2.52926,-3.55855 6.32766,-13.08362 3.60819,-16.61702 0,0 -1.45941,-2.46592 -4.96635,-3.3814 -3.50693,-0.91548 -10.42971,-1.92253 -12.05162,-3.3835 -3.24385,-2.92194 -4.2451,-9.19213 -8.84376,-11.0236 -5.49729,-2.18935 -10.52595,-0.10845 -13.7698,2.81352 -3.24386,2.92194 -1.96617,7.50589 0.7705,12.78563 z"
           id="path4278-2"
           inkscape:connector-curvature="0"
           sodipodi:nodetypes="scsssssssss" />
        <g
           transform="matrix(0.99756405,0.06975648,-0.06975648,0.99756405,16.94032,-26.308824)"
           id="g4396">
          <circle
             r="28.825235"
             cy="229.39923"
             cx="385.16324"
             id="path4203-6"
             style="opacity:1;fill:#ffffff;fill-opacity:1;stroke:#000000;stroke-width:2;stroke-linecap:butt;stroke-linejoin:miter;stroke-miterlimit:4;stroke-dasharray:none;stroke-opacity:1" />
          <path
             sodipodi:nodetypes="sssssss"
             inkscape:connector-curvature="0"
             id="path4298"
             d="m 407.40001,223.56221 c 0,0.93888 -1.99233,1.78888 -5.2135,2.40416 -3.22117,0.61528 -6.07117,3.59584 -10.9865,3.59584 -4.91533,0 -10.96533,-2.98056 -14.1865,-3.59584 -3.22117,-0.61528 -5.2135,-1.46528 -5.2135,-2.40416 0,-1.87777 7.96933,-3.4 17.8,-3.4 9.83067,0 17.8,1.52223 17.8,3.4 z"
             style="opacity:1;fill:#0a0a08;fill-opacity:1;stroke:#000000;stroke-width:1.5;stroke-linecap:round;stroke-linejoin:miter;stroke-miterlimit:4;stroke-dasharray:none;stroke-opacity:1" />
          <path
             sodipodi:nodetypes="sssssssscs"
             inkscape:connector-curvature="0"
             id="path4298-7"
             d="m 412.6,234.8622 c 0,0.93888 -10.39233,8.58888 -13.6135,9.20416 -3.22117,0.61528 -5.27117,1.79584 -10.1865,1.79584 -4.91533,0 -10.1865,-2.39584 -10.1865,-2.39584 -1.31188,-0.98367 -4.76396,-3.02396 -8.71469,-5.78073 C 365.94808,234.92886 357,230.53164 357,230.0622 c 0,-1.87777 15.16933,5.20001 26.8,7 2.42875,0.37588 4.65554,-0.27882 6.78505,-0.20066 2.12952,0.0781 4.16176,0.8892 6.20145,0.9965 0,0 15.8135,-3.93473 15.8135,-2.99584 z"
             style="opacity:1;fill:#c06363;fill-opacity:1;stroke:#000000;stroke-width:4;stroke-linecap:round;stroke-linejoin:miter;stroke-miterlimit:4;stroke-dasharray:none;stroke-opacity:1" />
          <path
             sodipodi:nodetypes="csc"
             inkscape:connector-curvature="0"
             inkscape:original-d="m 392.4,229.9622 c 0,3.6 0.1,5.25 -1.8,6 -1.9,0.75 -6.8,0.8 -6.8,0.8"
             inkscape:path-effect="#path-effect4322"
             id="path4320"
             d="m 392.4,229.9622 c 0.28303,1.06191 0.26537,2.20224 -0.0504,3.25487 -0.31579,1.05264 -0.92875,2.01438 -1.74958,2.74513 -0.90763,0.80802 -2.06714,1.32897 -3.27401,1.47095 -1.20686,0.14199 -2.45561,-0.0956 -3.52599,-0.67095"
             style="fill:none;fill-rule:evenodd;stroke:#000000;stroke-width:1px;stroke-linecap:butt;stroke-linejoin:miter;stroke-opacity:1" />
        </g>
        <ellipse
           style="opacity:1;fill:#63a5c0;fill-opacity:1;stroke:#000000;stroke-width:1;stroke-linecap:round;stroke-linejoin:miter;stroke-miterlimit:4;stroke-dasharray:none;stroke-opacity:1"
           id="path4343"
           cx="349.5"
           cy="192.19554"
           rx="6.5"
           ry="9.5" />
        <ellipse
           style="opacity:1;fill:#000000;fill-opacity:1;stroke:#000000;stroke-width:0.66666669;stroke-linecap:round;stroke-linejoin:miter;stroke-miterlimit:4;stroke-dasharray:none;stroke-opacity:1"
           id="path4343-0"
           cx="350.66666"
           cy="193.69553"
           rx="4.3333335"
           ry="6.3333335" />
        <ellipse
           style="opacity:1;fill:#63a5c0;fill-opacity:1;stroke:#000000;stroke-width:1;stroke-linecap:round;stroke-linejoin:miter;stroke-miterlimit:4;stroke-dasharray:none;stroke-opacity:1"
           id="path4343-9"
           cx="406.33334"
           cy="191.69554"
           rx="6.5"
           ry="9.5" />
        <ellipse
           style="opacity:1;fill:#000000;fill-opacity:1;stroke:#000000;stroke-width:0.66666669;stroke-linecap:round;stroke-linejoin:miter;stroke-miterlimit:4;stroke-dasharray:none;stroke-opacity:1"
           id="path4343-0-3"
           cx="406.59967"
           cy="194.29553"
           rx="4.3333335"
           ry="6.3333335" />
        <path
           style="fill:none;fill-rule:evenodd;stroke:#000000;stroke-width:1.5;stroke-linecap:round;stroke-linejoin:miter;stroke-miterlimit:4;stroke-dasharray:none;stroke-opacity:1"
           d="m 357.56668,202.46224 c 0,0 6.18662,-4.45246 13.15493,-5.9287 6.83291,-1.44756 18.2183,-2.14289 23.84507,-0.40463 1.06756,0.3298 5.33051,1.3572 7.08276,2.30446 1.75225,0.94725 4.31524,4.12662 5.61858,6.29024 2.98288,4.95177 4.16533,11.27197 4.16533,11.27197"
           id="path4296"
           inkscape:connector-curvature="0"
           sodipodi:nodetypes="cssssc" />
      </g>
      <g
         transform="translate(-0.94339491,2.5660379)"
         id="g4651">
        <path
           style="fill:#090909;fill-opacity:1;fill-rule:evenodd;stroke:#000000;stroke-width:3;stroke-linecap:butt;stroke-linejoin:miter;stroke-miterlimit:4;stroke-dasharray:none;stroke-opacity:1"
           d="m 556.5,465.3622 c 15.28,4.51751 28.5675,15.40588 36,29.5 5.70142,10.81151 7.95077,23.04607 10.5,35 2.67179,12.52866 5.74877,24.96751 8.49414,37.48025 0.76159,3.47115 1.49968,6.96211 1.74117,10.50762 0.24148,3.5455 -0.0284,7.16963 -1.23531,10.51213 -1.18485,3.28146 -3.25673,6.21729 -5.84626,8.55528 -2.58952,2.33798 -5.68687,4.08653 -8.97568,5.25082 -6.57761,2.32858 -13.79045,2.31107 -20.67806,1.1939 -9.64755,-1.56483 -18.94095,-5.25019 -27.0625,-10.6875 C 534.365,582.58378 523.72389,566.7235 517.77344,549.58876 513.33646,536.81217 511.34402,523.32035 510,509.8622 c -1.53988,-15.41942 -2.19384,-31.40021 3,-46 2.10855,-5.92709 5.15828,-11.51827 9,-16.5 4.84671,0.53656 9.6014,1.89504 14,4 7.33697,3.51112 13.6529,9.12528 18,16"
           id="path4431"
           inkscape:path-effect="#path-effect4433"
           inkscape:original-d="m 556.5,465.3622 c 0,0 36,24 36,29.5 0,5.5 9.5,17.5 10.5,35 0.53302,9.3279 8.69689,22.02593 8.49414,37.48025 -0.17764,13.53941 8.44447,23.82161 0.50586,21.01975 -17,-6 -26.04789,-1.72297 -35.5,15 -6.5,11.5 -12.125,-9.125 -27.0625,-10.6875 -5.92732,-0.62001 -30.51563,-36.92187 -31.66406,-43.08594 C 516.625,543.4247 509.625,516.4872 510,509.8622 c 1.5,-26.5 1,-27.5 3,-46 2,-18.5 9,-16.5 9,-16.5 0,0 5,0.5 14,4 9,3.5 19.5,-0.5 18,16"
           inkscape:connector-curvature="0"
           sodipodi:nodetypes="cssssssssscsc" />
        <path
           style="fill:none;fill-rule:evenodd;stroke:#48443a;stroke-width:3;stroke-linecap:round;stroke-linejoin:miter;stroke-miterlimit:4;stroke-dasharray:none;stroke-opacity:1"
           d="m 552,473.3622 c -0.1932,10.70545 1.19301,21.43809 4.09987,31.74314 1.85219,6.56615 4.31278,12.94413 6.90013,19.25686 3.79554,9.26049 7.90262,18.46101 13.49834,26.75865 2.95026,4.3748 6.30285,8.47815 10.00166,12.24135"
           id="path4437"
           inkscape:path-effect="#path-effect4439"
           inkscape:original-d="m 552,473.3622 c -0.23492,11.04137 2.41317,25.49878 4.09987,31.74314 1.9032,7.04589 -3.62717,22.91829 6.90013,19.25686 12.15532,-4.22766 9.91722,19.36443 13.49834,26.75865 4.17523,8.62092 10.00166,12.24135 10.00166,12.24135"
           inkscape:connector-curvature="0"
           sodipodi:nodetypes="csssc" />
        <path
           style="fill:none;fill-rule:evenodd;stroke:#48443a;stroke-width:3;stroke-linecap:round;stroke-linejoin:miter;stroke-miterlimit:4;stroke-dasharray:none;stroke-opacity:1"
           d="m 530.75,575.1122 c 5.12999,7.2726 11.71433,13.5149 19.25,18.25 5.73504,3.60366 12.00361,6.33325 18.5,8.25 7.44689,2.1972 15.35057,3.33044 23,2 4.78833,-0.83282 9.40707,-2.629 13.5,-5.25"
           id="path4461"
           inkscape:path-effect="#path-effect4463"
           inkscape:original-d="m 530.75,575.1122 c 0,0 12.59564,13.805 19.25,18.25 6.65436,4.445 12.07601,6.37933 18.5,8.25 6.42399,1.87067 16.83502,2.60603 23,2 6.16498,-0.60603 13.5,-5.25 13.5,-5.25"
           inkscape:connector-curvature="0"
           sodipodi:nodetypes="czzzc" />
      </g>
      <path
         sodipodi:nodetypes="cccccccccccccccccccccccccccccc"
         inkscape:connector-curvature="0"
         inkscape:original-d="m 454.17517,426.9728 6.44202,3.00396 7.05556,3.29005 16.61132,-9.41438 -23.60458,28.10268 78.4667,-66.77168 -77.35037,87.24616 66.65518,-59.90805 -43.09671,48.94425 27.60174,-19.05538 -15.30124,21.59856 18.78403,-15.18556 -25.4267,41.61983 74.64717,-70.14906 -84.28829,95.98328 122.37993,-116.53238 -99.94011,109.83589 81.89185,-78.74319 -49.4903,57.13706 74.61256,-70.56429 -77.55332,88.34874 65.22976,-55.78379 -43.90397,56.94845 56.49049,-43.89583 -27.95462,36.05117 26.64685,-19.89972 -21.31887,30.76485 46.34657,-38.25001 -22.55052,26.59882 25.7681,12.01586"
         inkscape:path-effect="#path-effect4467"
         id="path4465"
         d="m 454.17517,426.9728 c 2.14734,1.00132 4.29468,2.00264 6.44202,3.00396 2.35185,1.09668 4.70371,2.19337 7.05556,3.29005 l 16.61132,-9.41438 -23.60458,28.10268 78.4667,-66.77168 -77.35037,87.24616 66.65518,-59.90805 -43.09671,48.94425 27.60174,-19.05538 -15.30124,21.59856 18.78403,-15.18556 -25.4267,41.61983 74.64717,-70.14906 -84.28829,95.98328 122.37993,-116.53238 -99.94011,109.83589 81.89185,-78.74319 -49.4903,57.13706 74.61256,-70.56429 -77.55332,88.34874 65.22976,-55.78379 -43.90397,56.94845 56.49049,-43.89583 -27.95462,36.05117 26.64685,-19.89972 -21.31887,30.76485 46.34657,-38.25001 -22.55052,26.59882 25.7681,12.01586"
         style="fill:none;fill-opacity:1;fill-rule:evenodd;stroke:#94db34;stroke-width:5;stroke-linecap:round;stroke-linejoin:round;stroke-miterlimit:4;stroke-dasharray:none;stroke-opacity:1" />
      <g
         id="g4710">
        <g
           id="g4690">
          <path
             style="fill:#090909;fill-opacity:1;fill-rule:evenodd;stroke:#000000;stroke-width:3;stroke-linecap:butt;stroke-linejoin:miter;stroke-miterlimit:4;stroke-dasharray:none;stroke-opacity:1"
             d="m 294.5,498.8622 c -3.90647,0.12201 -7.62342,1.93319 -10.60516,4.45997 -2.98174,2.52678 -5.30208,5.73916 -7.39484,9.04003 -3.4447,5.43324 -6.37247,11.23713 -8.1699,17.41413 -1.79743,6.177 -2.43873,12.74891 -1.3301,19.08587 1.76781,10.10478 8.15316,19.3072 17,24.5 16.17774,6.59555 33.18915,11.14315 50.5,13.5 22.96529,3.12669 46.57654,2.36255 69,-3.5 33.39729,-8.73164 63.66995,-28.97311 84.5,-56.5 l 39.5,-46 c 4.4793,-1.87281 8.31262,-5.25318 10.73104,-9.46302 2.41842,-4.20984 3.40754,-9.22411 2.76896,-14.03698 -0.48952,-3.68938 -1.91757,-7.24357 -4.06985,-10.27983 -2.15228,-3.03626 -5.02135,-5.55301 -8.28458,-7.34257 -6.52645,-3.57912 -14.54984,-4.12601 -21.64557,-1.8776 -5.43845,1.72327 -10.28856,4.97055 -14.57185,8.73882 -4.28328,3.76828 -8.05669,8.07093 -11.92815,12.26118 -9.12318,9.87443 -18.85098,19.1833 -29,28 -11.86584,10.30815 -24.41892,20.01579 -38.5,27 -32.31261,16.02703 -72.03551,16.2171 -104.5,0.5 0.52437,-3.92438 -0.75697,-8.05368 -3.4108,-10.99186 -2.65384,-2.93817 -6.63187,-4.63174 -10.5892,-4.50814 z"
             id="path4419"
             inkscape:path-effect="#path-effect4421"
             inkscape:original-d="m 294.5,498.8622 c -7.49711,0.20809 -15.5,8.5 -18,13.5 -2.5,5 -11,31 -9.5,36.5 1.5,5.5 17,24.5 17,24.5 0,0 47.5,14.5 50.5,13.5 3,-1 45,9.5 69,-3.5 24,-13 77.5,-50.5 84.5,-56.5 16.041,-16.51103 32.83176,-24.09005 39.5,-46 0,0 16.5,-21 13.5,-23.5 -3,-2.5 -29,-21.5 -34,-19.5 -5,2 -26.5,21 -26.5,21 0,0 -25,25 -29,28 -4,3 -7.5,12.5 -38.5,27 -31,14.5 -104.5,0.5 -104.5,0.5 0,0 -0.78473,-15.86681 -14,-15.5 z"
             inkscape:connector-curvature="0"
             sodipodi:nodetypes="ssscssccsscsscs"
             transform="translate(2.603774,4.301886)" />
          <path
             sodipodi:nodetypes="cccc"
             inkscape:connector-curvature="0"
             inkscape:original-d="m 507.84314,510.85894 9.80392,-11.11111 7.18954,-8.49674 3.59477,-4.90196"
             inkscape:path-effect="#path-effect4687"
             id="path4685"
             d="m 507.84314,510.85894 c 3.31165,-3.66486 6.57993,-7.36891 9.80392,-11.11111 2.42163,-2.81087 4.81827,-5.64327 7.18954,-8.49674 l 3.59477,-4.90196"
             style="fill:none;fill-rule:evenodd;stroke:#48443a;stroke-width:3;stroke-linecap:round;stroke-linejoin:miter;stroke-miterlimit:4;stroke-dasharray:none;stroke-opacity:1" />
        </g>
        <g
           id="g4647"
           transform="translate(2.603774,4.301886)">
          <path
             sodipodi:nodetypes="ccsccccc"
             inkscape:connector-curvature="0"
             inkscape:original-d="m 271.92119,561.72181 c 2.38095,3.03776 2.05254,2.62725 4.43349,5.66502 1.36123,0.72599 4.81552,4.05827 7.38827,5.79386 2.08246,1.40483 3.33256,1.25397 4.43439,1.84161 8.04598,3.11987 13.13629,4.02299 21.18227,7.14286 7.71757,1.55994 15.43514,3.11987 23.15271,4.6798 4.4335,0.16421 10.59113,1.06733 15.02463,1.23153 -2.13465,-9.77012 12.47947,0.65681 18.71921,0.98522"
             inkscape:path-effect="#path-effect4471"
             id="path4469"
             d="m 271.92119,561.72181 4.43349,5.66502 c 2.08889,2.35326 4.60484,4.32627 7.38827,5.79386 1.41777,0.74753 2.90417,1.36484 4.43439,1.84161 l 21.18227,7.14286 23.15271,4.6798 15.02463,1.23153 18.71921,0.98522"
             style="fill:none;fill-rule:evenodd;stroke:#48443a;stroke-width:3;stroke-linecap:round;stroke-linejoin:miter;stroke-miterlimit:4;stroke-dasharray:none;stroke-opacity:1" />
        </g>
      </g>
      <path
         sodipodi:nodetypes="ccc"
         inkscape:connector-curvature="0"
         inkscape:original-d="m 342.15686,718.37527 c 3.82271,2.28351 7.64543,4.56703 11.46814,6.85054 3.69363,1.74699 7.38725,3.49398 11.08088,5.24097"
         inkscape:path-effect="#path-effect4537"
         id="path4535"
         d="m 342.15686,718.37527 11.46814,6.85054 11.08088,5.24097"
         style="fill:none;fill-rule:evenodd;stroke:#48443a;stroke-width:3;stroke-linecap:round;stroke-linejoin:miter;stroke-miterlimit:4;stroke-dasharray:none;stroke-opacity:1" />
    </g>
    <g
       id="g4994"
       transform="translate(-1132,-158)" />
  </g>
</svg>
